# xmcd
#
# Track frame offsets: 
#        150
#        10152
#        29488
#        52032
#        73691
#        91229
#        118354
#        133706
#        151596
#        178183
#        201195
#        221129
#        243874
#        269503
#        292769
#        316543
#
# Disc length: 4425 seconds
#
# Revision: 5
# Processed by: cddbd v1.5.2PL0 Copyright (c) Steve Scherf et al.
# Submitted via: ExactAudioCopy v1.0b2
#
DISCID=e5114710
DTITLE=Various Artist - DJ Jurgen Vol. 3 (2000)
DYEAR=2000
DGENRE=Trance
TTITLE0=Oreon Groove Project - Artificial Dust
TTITLE1=E Graiq - Dutch Drum Attack
TTITLE2=2000 BC - Everybody
TTITLE3=Lemon 8 - Bells Of Revolution
TTITLE4=Out Of Grace - Come With Me
TTITLE5=Cyber Human - The Scene
TTITLE6=Brit Presents Dusk No. 1 - Be Yourself Be Free
TTITLE7=Bismark - Make A Dream
TTITLE8=Nylon - Dream As One
TTITLE9=Trinity - Into The Blue
TTITLE10=Signum - What You Got For Me
TTITLE11=I-Ching - The Forgotten Dream
TTITLE12=Sureal - You Take My Breath Away
TTITLE13=DJ Gee - The Dolphin
TTITLE14=Jaccot - Mu-V Express
TTITLE15=Caater - King Size
EXTD=ID3G:   0
EXTT0=
EXTT1=
EXTT2=
EXTT3=
EXTT4=
EXTT5=
EXTT6=
EXTT7=
EXTT8=
EXTT9=
EXTT10=
EXTT11=
EXTT12=
EXTT13=
EXTT14=
EXTT15=
PLAYORDER=
